<?xml version="1.0" encoding="utf-8"?>
<!-- Generator: Adobe Illustrator 22.1.0, SVG Export Plug-In . SVG Version: 6.00 Build 0)  -->
<svg version="1.1" id="Capa_1" xmlns="http://www.w3.org/2000/svg" xmlns:xlink="http://www.w3.org/1999/xlink" x="0px" y="0px"
	 viewBox="0 0 512 512" style="enable-background:new 0 0 512 512;" xml:space="preserve">
<style type="text/css">
	.st0{fill:#7E7E7E;}
</style>
<g>
	<g>
		<path class="st0" d="M512,165c0-6-1.2-11.8-3.5-17.3c0,0,0,0,0,0l-50-120C451.5,10.9,435.2,0,417,0H95C76.8,0,60.5,10.9,53.5,27.7
			l-50,120C1.2,153.2,0,159,0,165v62c0,11.5,4.4,22,11.5,30C4.4,265,0,275.5,0,287v60c0,11.5,4.4,22,11.5,30C4.4,385,0,395.5,0,407
			v60c0,24.8,20.2,45,45,45h422c24.8,0,45-20.2,45-45v-60c0-11.5-4.4-22-11.5-30c7.1-8,11.5-18.5,11.5-30v-60c0-11.5-4.4-22-11.5-30
			c7.1-8,11.5-18.5,11.5-30V165z M81.2,39.2C83.5,33.6,88.9,30,95,30h322c6.1,0,11.5,3.6,13.8,9.2l33.7,80.8h-417L81.2,39.2z
			 M482,467c0,8.3-6.7,15-15,15H45c-8.3,0-15-6.7-15-15v-60c0-8.3,6.7-15,15-15h422c8.3,0,15,6.7,15,15V467z M482,347
			c0,8.3-6.7,15-15,15H45c-8.3,0-15-6.7-15-15v-60c0-8.3,6.7-15,15-15h422c8.3,0,15,6.7,15,15V347z M482,227c0,8.3-6.7,15-15,15H45
			c-8.3,0-15-6.7-15-15v-62c0-8.3,6.7-15,15-15h422c8.3,0,15,6.7,15,15V227z"/>
	</g>
</g>
<g>
	<g>
		<path class="st0" d="M437,422H165c-8.3,0-15,6.7-15,15s6.7,15,15,15h272c8.3,0,15-6.7,15-15S445.3,422,437,422z"/>
	</g>
</g>
<g>
	<g>
		<path class="st0" d="M437,180H165c-8.3,0-15,6.7-15,15s6.7,15,15,15h272c8.3,0,15-6.7,15-15S445.3,180,437,180z"/>
	</g>
</g>
<g>
	<g>
		<path class="st0" d="M75,180c-8.3,0-15,6.7-15,15s6.7,17,15,17s15-8.7,15-17S83.3,180,75,180z"/>
	</g>
</g>
<g>
	<g>
		<path class="st0" d="M437,302H165c-8.3,0-15,6.7-15,15s6.7,15,15,15h272c8.3,0,15-6.7,15-15S445.3,302,437,302z"/>
	</g>
</g>
<g>
	<g>
		<circle class="st0" cx="75" cy="317" r="15"/>
	</g>
</g>
<g>
	<g>
		<circle class="st0" cx="75" cy="437" r="15"/>
	</g>
</g>
</svg>
